<svg width="116" height="113" viewBox="0 0 116 113" fill="none" xmlns="http://www.w3.org/2000/svg">
<path d="M60.6364 0C27.1994 0 0 25.3464 0 56.5C0 87.6536 27.1994 113 60.6364 113C62.0943 113 63.2727 111.899 63.2727 110.543V90.8913C63.2727 89.5353 62.0943 88.4348 60.6364 88.4348C41.7389 88.4348 26.3636 74.1083 26.3636 56.5C26.3636 38.8917 41.7389 24.5652 60.6364 24.5652C62.0943 24.5652 63.2727 23.4647 63.2727 22.1087V2.45652C63.2727 1.10052 62.0943 0 60.6364 0ZM60.6364 44.2174C59.1785 44.2174 58 45.3179 58 46.6739V68.7826C58 70.1386 59.1785 71.2391 60.6364 71.2391H87V95.8043C87 97.1603 88.1785 98.2609 89.6364 98.2609H113.364C114.822 98.2609 116 97.1603 116 95.8043V46.6739C116 45.3179 114.822 44.2174 113.364 44.2174H60.6364Z" fill="#3A8BB1"/>
</svg>
